PathFileType	4	(X/Y/Z)	C:/Users/beibeiliu/ov580/test_trc/User3\sequence.5_training_dense_right.trc
DataRate	CameraRate	NumFrames	NumMarkers	Units	OrigDataRate	OrigDataStartFrame	OrigNumFrames
120	120	24	19	mm	120	53	79
Frame#	Time	ThumbCMC			ThumbMCP			ThumbIP			ThumbTip			IndexMCP			IndexPIP			IndexTip			MiddleMCP			MiddlePIP			MiddleTip			RingMCP			RingPIP			RingTip			PinkyMCP			PinkyPIP			PinkyTip			BackHand1			BackHand2			BackHand3	
		X0	Y0	Z0	X1	Y1	Z1	X2	Y2	Z2	X3	Y3	Z3	X4	Y4	Z4	X5	Y5	Z5	X6	Y6	Z6	X7	Y7	Z7	X8	Y8	Z8	X9	Y9	Z9	X10	Y10	Z10	X11	Y11	Z11	X12	Y12	Z12	X13	Y13	Z13	X14	Y14	Z14	X15	Y15	Z15	X16	Y16	Z16	X17	Y17	Z17	X18	Y18	Z18	
52	0.433333	134.719	37.9583	22.5597	120.853	24.3566	-8.10787	123.857	13.0039	-35.4137	132.943	0.256552	-54.3212	149.103	51.2746	-53.6724	137.118	46.1087	-76.7055	133.111	34.7181	-100.907	164.216	30.0034	-56.8722	144.431	4.97749	-57.1718	148.659	2.13858	-16.857	174.475	13.066	-46.2943	158.552	-9.70544	-35.8731	160.218	1.88697	-2.71545	189.082	5.13324	-36.6219	170.037	-13.4822	-28.9405	169.264	-2.99844	-0.132574	199.531	43.4138	-0.559432	198.23	40.4713	33.8759	170.706	56.1075	18.4985	
53	0.441667	139.545	41.9796	16.7053	124.366	29.2062	-14.392	126.281	16.5708	-40.1953	142.345	2.3097	-62.0842	162.398	60.4684	-54.3244	158.391	57.5078	-79.5794	154.562	50.5905	-104.774	170.924	36.3455	-59.4469	152.632	5.6601	-60.9017	152.849	4.25586	-23.2245	183.174	14.5227	-50.9168	165.846	-6.94917	-42.0296	160.625	6.57185	-9.08776	197.403	6.37019	-39.4491	178.579	-13.0853	-33.647	171.155	-2.21908	-6.19936	205.236	45.5625	-0.439561	203.175	42.6509	29.9091	174.488	62.5509	14.3296	
54	0.45	147.379	47.2437	9.94786	133.874	35.8284	-19.2279	135.07	23.3916	-49.7764	146.484	8.36617	-64.0418	179.432	67.7584	-61.1448	178.069	69.3875	-88.6337	178.422	65.3954	-110.663	181.157	38.4905	-65.3823	159.935	11.5353	-65.9475	153.578	11.2724	-30.1011	188.553	20.0919	-54.2013	172.814	-2.89525	-46.6869	165.93	6.69725	-15.3987	200.8	8.44651	-44.697	180.207	-7.01701	-36.5792	177.41	2.8827	-5.65022	209.215	48.5398	-6.14593	208.451	43.6741	27.6658	182.18	67.2998	7.23526	
55	0.458333	153.111	47.5968	4.60834	141.549	36.2787	-26.6894	139.977	22.1121	-51.3536	157.586	5.12142	-66.2489	186.403	63.9145	-63.8199	190.552	61.2102	-89.3418	193.105	58.4392	-111.705	189.875	34.0803	-66.462	168.174	9.49942	-68.968	161.95	10.5634	-28.5374	199.95	16.2564	-53.2514	173.479	-2.48693	-47.1838	172.97	5.86295	-14.6292	208.663	7.05111	-43.1303	186.515	-11.3792	-36.6283	178.954	1.70514	-10.9891	217.127	46.5141	-7.59767	211.506	42.8347	26.3509	185.3	66.7355	4.04331	
56	0.466667	158.138	44.1191	2.10306	145.942	30.3562	-28.592	149.846	16.0924	-53.9517	163.773	-1.58005	-66.9069	194.318	48.7945	-66.6248	193.63	45.3821	-88.4707	200.517	40.4252	-112.968	197.811	24.9839	-65.9384	178.19	-0.0804205	-68.5806	167.06	5.20868	-30.3768	204.764	10.6638	-52.6975	184.49	-13.2928	-45.5258	179.876	0.119443	-15.7687	214.398	0.262158	-42.2009	193.847	-18.733	-36.0529	189.309	-4.52493	-8.9461	222.316	38.9032	-5.02304	216.703	40.3093	25.3485	193.424	59.1968	2.19046	
57	0.475	164.633	42.0444	-0.204669	156.016	28.6553	-34.677	160.083	12.1968	-61.6949	174.793	-3.42942	-67.2398	205.598	48.7119	-65.7878	211.979	42.2509	-89.1518	220.133	36.1854	-111.901	211.319	19.7781	-65.0244	187.015	-4.03366	-67.9875	177.94	2.28344	-31.9811	218.446	5.20741	-50.9341	195.175	-15.16	-48.0193	184.757	1.63915	-19.1135	226.743	-7.21734	-41.6949	202.613	-17.9666	-38.9177	194.819	-2.8464	-9.75548	228.326	38.9566	-4.35881	223.841	37.2369	23.7644	201.91	56.544	1.85984	
58	0.483333	175.245	48.294	-8.71204	165.428	34.8215	-39.0872	170.124	20.1165	-65.7794	191.062	1.23865	-73.0144	224.044	57.0138	-64.3036	233.254	57.1136	-91.2528	243.403	51.9894	-111.63	226.177	28.4469	-65.5781	203.409	1.14695	-70.7191	186.128	11.378	-35.4607	229.192	14.7816	-54.5403	208.142	-8.61805	-49.4793	195.591	4.90527	-23.9428	239.469	0.165909	-41.1589	214.844	-13.4438	-40.9901	202.894	-1.51153	-14.3624	238.542	40.7934	-2.33361	228.268	41.6049	28.3634	209.687	62.6405	1.70983	
59	0.491667	179.508	54.8157	-14.4695	169.467	43.0766	-48.3625	183.731	25.7607	-70.6782	197.553	8.652	-78.4084	229.876	67.7573	-69.6423	243.05	63.6673	-91.7449	256.947	57.0498	-113.042	232.666	34.192	-72.3111	210.976	9.98136	-77.1557	193.435	14.9894	-43.8507	238.77	19.7948	-58.07	216.03	-1.83452	-55.6518	203.666	10.7485	-27.7449	247.284	9.08433	-42.935	223.698	-7.30498	-44.9987	209.868	5.61618	-22.896	243.24	50.1441	-10.5135	230.726	50.209	23.5936	213.999	70.3849	-2.35459	
60	0.5	176.689	63.9389	-20.2239	174.635	49.955	-51.8539	182.079	33.3799	-77.4917	199.51	13.8584	-86.7997	233.917	68.8231	-78.5124	241.426	62.5837	-104.643	251.297	54.9241	-125.67	233.648	44.0597	-76.593	211.014	19.6424	-84.9898	195.923	23.774	-44.4597	239.001	23.6767	-65.1383	217.245	6.09074	-60.6915	204.924	20.3717	-32.357	248.051	14.408	-47.5666	221.015	4.17271	-51.0638	211.254	11.5267	-25.5205	245.944	57.4747	-14.3623	233.051	58.2838	16.1401	216.551	78.6411	-12.5444	
61	0.508333	177.027	70.3376	-27.8398	166.41	56.5486	-57.9069	176.344	39.0913	-84.4698	195.233	22.2216	-88.4794	223.865	75.0009	-84.2071	232.192	62.3552	-110.6	233.814	55.1842	-131.992	230.339	47.2731	-80.4653	203.747	24.8815	-88.9528	188.901	32.3336	-53.2296	232.217	33.5053	-70.949	211.119	13.4441	-68.9857	199.47	26.0902	-38.41	240.277	21.9903	-58.1777	219.063	7.61059	-56.1017	205.221	24.9941	-29.8454	242.833	62.133	-22.7377	231.764	63.8601	8.30542	211.14	86.211	-18.5629	
62	0.516667	166.064	76.8325	-28.0011	157.316	62.098	-58.463	165.284	46.5255	-88.27	181.65	29.948	-96.19	207.819	86.1039	-89.2453	209.221	80.0932	-115.68	205.834	73.0707	-143.633	213.198	56.2544	-93.2337	188.962	35.4256	-94.8736	180.821	38.69	-54.1401	220.173	41.5945	-76.5534	193.1	23.0492	-72.2191	188.848	36.9073	-39.6338	229.74	29.3785	-65.2509	203.16	17.8309	-61.9438	196.228	32.8023	-35.7648	231.756	70.7251	-28.3038	226.148	68.5912	3.97966	203.281	90.0308	-23.1023	
63	0.525	149.922	76.6084	-26.2364	138.888	63.0423	-55.7568	140.215	50.3281	-84.7387	159.518	33.5206	-99.7315	178.592	96.7769	-91.462	168.229	99.7804	-120.519	165.348	89.1423	-145.81	186.453	66.1861	-95.2981	165.993	42.6291	-98.4049	165.784	39.5933	-54.4842	196.732	49.1561	-82.7725	176.774	26.8502	-75.5308	174.733	35.7889	-44.0012	207.406	37.3437	-74.4184	185.253	24.2209	-68.8962	182.607	31.0634	-37.9222	216.537	77.3304	-39.1248	213.054	71.5726	-3.42541	184.663	93.9173	-24.7114	
64	0.533333	138.631	67.7429	-15.4986	122.834	56.2585	-51.2058	120.732	43.8412	-76.4023	139.566	31.3298	-96.1155	150.101	94.2855	-86.7098	137.614	92.1359	-117.042	131.508	83.3594	-140.003	161.745	65.925	-94.6857	147.911	36.7351	-95.8984	147.099	33.4453	-56.1199	177.114	47.5747	-84.8171	160.732	20.4249	-73.2611	159.909	29.703	-44.7613	189.11	37.328	-77.6053	170.355	18.7028	-68.0613	172.792	24.3128	-38.3501	201.411	74.2212	-42.4081	203.5	70.0014	-7.51968	172.065	88.0922	-21.417	
65	0.541667	130.361	58.0677	-13.1381	118.845	44.4093	-42.6494	113.304	34.355	-70.3924	125.807	22.2849	-89.9962	136.751	76.8473	-85.3703	127.027	66.4178	-112.315	117.748	58.4952	-130.915	156.187	54.7854	-96.8021	141.52	27.9472	-98.2627	138.684	19.9723	-60.3236	167.461	41.15	-86.3429	154.03	14.9402	-79.7313	152.111	21.1563	-46.5631	183.518	31.4217	-78.3605	167.837	9.66471	-69.4207	165.225	16.611	-43.4837	191.713	69.4815	-38.1901	193.514	66.2107	-5.44107	164.216	82.6383	-22.3702	
66	0.55	128.542	53.9295	-13.3711	117.323	38.9317	-40.1222	109.97	29.3246	-71.1875	119.542	17.8514	-89.8269	138.166	67.6711	-89.2814	125.878	60.0284	-110.515	116.886	43.1467	-133.798	159.413	56.772	-94.6049	145.967	28.2832	-107.725	141.048	8.28324	-71.7612	174.938	41.2796	-91.574	161.883	12.5198	-91.6721	153.166	8.93209	-62.3442	191.456	32.3271	-78.3759	177.673	10.5023	-83.3463	167.127	4.9397	-52.5841	192.821	66.6789	-40.0933	193.738	63.3998	-7.38037	161.268	77.0785	-19.6273	
67	0.558333	127.701	54.045	-13.8059	116.167	38.5565	-40.2942	109.569	27.9825	-68.506	107.881	15.6144	-87.3375	141.895	65.6236	-90.5666	129.61	54.758	-114.399	124.916	36.8179	-134.465	161.747	60.3517	-99.2173	155.923	37.5688	-118.245	145.595	4.40189	-101.723	184.849	50.6927	-87.7716	175.651	27.6465	-108.216	162.091	3.90848	-88.9815	202.269	36.074	-75.4251	188.218	15.2151	-92.6568	174.204	-1.97414	-75.4049	191.698	66.5368	-35.6251	196.363	65.3103	-4.20903	159.192	78.2887	-23.3682	
68	0.566667	127.92	53.5205	-14.6132	115.325	39.2977	-37.1697	98.1247	27.67	-63.4983	95.733	16.3701	-83.3619	143.388	64.429	-89.6768	135.319	54.6604	-115.26	124.755	37.632	-134.857	169.408	64.0148	-100.751	163.5	47.3628	-123.817	153.229	11.6953	-130.464	190.116	55.9443	-88.7132	184.302	41.2323	-114.418	171.596	8.78655	-117.604	205.85	41.6526	-74.3908	204.384	28.2705	-94.4915	187.652	0.618889	-98.1227	189.602	68.5695	-35.6172	194.253	68.0778	-8.27761	162.75	76.9571	-25.1856	
69	0.575	131.333	53.2596	-19.3766	113.566	40.4331	-37.3174	95.612	29.6753	-63.5525	88.2817	18.3783	-77.2318	140.003	62.1418	-94.8025	132.91	53.3531	-117.552	126.264	40.4169	-138.357	169.762	64.0424	-99.0703	165.705	53.2528	-126.653	164.638	25.5199	-149.469	191.157	56.1877	-86.9589	189.489	48.2249	-114.462	189.963	22.1148	-135.155	207.323	43.3071	-74.9546	216.903	31.0323	-92.4463	211.983	9.77655	-108.554	192.598	67.5881	-39.4987	189.707	69.8514	-6.45547	158.122	75.2377	-23.2634	
70	0.583333	131.556	52.6119	-17.4194	112.583	40.3429	-39.3525	90.8283	31.9319	-60.2011	81.346	22.0757	-76.4267	145.251	60.2199	-97.6945	134.981	54.3716	-119.239	126.837	44.6866	-144.543	175.977	61.486	-98.4984	169.1	56.2288	-124.623	171.468	40.6341	-153.828	190.92	54.1415	-87.6091	193.715	50.8534	-113.481	194.743	37.9092	-139.875	210.388	42.5387	-74.1649	220.535	32.4173	-94.1611	223.152	22.3351	-111.358	193.249	64.3749	-41.0167	192.041	67.826	-11.6588	161.235	75.8991	-27.6998	
71	0.591667	131.373	52.3615	-19.1101	109.723	42.7108	-36.7088	94.6246	32.5907	-61.9223	78.5039	24.439	-77.9371	145.474	61.0626	-94.7411	139.855	55.441	-121.04	130.569	51.6634	-141.098	173.317	61.333	-101.06	172.164	57.9733	-124.349	171.463	48.4649	-158.835	193.592	52.7825	-88.9205	200.272	49.3411	-111.198	201.652	43.9312	-141.586	212.305	38.942	-69.7174	220.056	35.2392	-89.2305	229.317	26.9046	-107.366	194.505	65.1839	-37.5818	191.752	67.1079	-6.1758	160.644	71.8586	-24.219	
72	0.6	132.853	50.2612	-14.7874	112.198	39.9999	-39.5029	95.8197	31.7037	-61.6686	82.0761	22.9331	-77.5238	149.205	59.0561	-91.1462	140.39	55.3012	-120.662	134.926	50.8944	-143.445	176.006	58.4772	-98.2965	177.384	55.1098	-124.981	173.841	49.4171	-153.944	194.277	50.788	-85.3572	197.737	48.6356	-112.609	206.637	42.6122	-137.794	211.213	37.6726	-67.8974	222.157	32.2374	-90.9888	236.245	27.316	-108.612	194.411	62.701	-36.8047	195.221	64.8684	-10.479	159.668	70.5368	-28.4644	
73	0.608333	132.863	49.3719	-18.2947	110.046	39.3781	-36.2652	97.2462	29.4773	-59.8441	84.4204	22.365	-76.0323	147.395	59.0631	-91.8065	136.412	55.8703	-116.605	133.496	53.0566	-139.164	175.18	58.5246	-97.044	176.03	54.4083	-121.249	174.66	48.8613	-153.087	193.597	50.0029	-84.3704	202.436	47.7479	-111.167	206.394	42.0322	-136.618	213.214	35.9824	-67.277	225.743	30.7925	-87.0702	236.92	28.1342	-108.349	192.043	60.3163	-38.4425	193.066	63.5797	-6.67509	160.054	69.1758	-24.2275	
74	0.616667	133.598	49.2588	-16.514	114.16	39.2359	-39.4988	98.6207	30.8424	-59.4999	87.13	22.3309	-78.1905	147.733	60.2826	-91.1621	138.551	57.986	-118.101	137.598	53.568	-140.051	175.642	59.545	-97.0418	178.311	55.5671	-124.011	177.77	50.2267	-151.862	195.452	51.4164	-83.3793	202.633	47.7164	-113.512	206.051	43.3255	-133.94	213.686	37.3657	-67.0235	225.502	32.4015	-89.3737	233.602	28.3508	-109.379	196.038	60.9034	-38.4913	194.05	63.9154	-5.26153	162.111	71.111	-27.511	
75	0.625	133.315	51.586	-16.7444	113.401	41.845	-35.7095	97.43	33.3899	-57.5751	83.5757	26.2566	-78.2794	147.817	62.48	-92.5552	139.614	59.5905	-116.762	133.151	57.0078	-139.729	174.327	62.8419	-93.0989	175.064	59.3916	-124.371	176.137	51.1837	-156.273	197.263	53.0373	-87.7462	199.395	51.4928	-108.282	205.012	43.974	-135.158	213.747	39.2355	-65.6289	224.456	34.5068	-83.9719	235.184	29.5838	-107.187	197.107	62.7262	-37.0529	195.119	64.1104	-5.22277	161.692	74.6013	-26.2135	
